# xmcd
# 
# Track frame offsets:
#     150
#     17950
#     41495
#     63260
#     78915
#     98400
#     122460
#     140995
#     159982
#     178785
#     199495
#     218327
# 
# Disc length: 3115
# 
# Revision: 6
# Processed by: cddbd v1.5.2PL0 Copyright (c) Steve Scherf et al.
# Submitted via: fre:ac v1.0.27
# 
DISCID=9c0c290c
DTITLE=Greg Brown - Further In
DYEAR=1996
DGENRE=American Folk
TTITLE0=Small Dark Movie
TTITLE1=Think About You
TTITLE2=Two Little Feet
TTITLE3=Hey Baby Hey
TTITLE4=China
TTITLE5=Where Is Maria
TTITLE6=If You Don't Get It At Home
TTITLE7=You Can Always Come To Me
TTITLE8=Someday When We're Both Alone
TTITLE9=Not High
TTITLE10=Further In
TTITLE11=If I Ever Do See You Again
EXTD=
EXTT0=
EXTT1=
EXTT2=
EXTT3=
EXTT4=
EXTT5=
EXTT6=
EXTT7=
EXTT8=
EXTT9=
EXTT10=
EXTT11=
PLAYORDER=
